:SAMPLES-PER-SECOND 30
:FULLY-SPECIFIED
:DEGREES
86
root  34.91612832 36.51818403 -14.86135768 8.928408623 -1.78324616 3.218838215
lowerback  -8.529641151 0.3401050568 -0.0564196296
upperback  -3.615700006 0.92028898 -3.472800016
thorax  1.094200015 0.6106960177 -3.470750093
lowerneck  -14.64430046 0.1596499979 0.7097799778
upperneck  15.63020039 -1.429469824 6.167660236
head  7.263169765 -0.2161980271 1.728660107
lclavicle  0 -4.497500157e-015 -2.743230041e-014
lhumerus  -45.07020187 26.31290054 68.66000366
lradius  -0.009002206847 -6.507048965e-006 29.83139992
lwrist  4.824992743e-007 -3.790274832e-007 -27.17259979
lhand  -4.416312412e-031 -36.91149902 -10.67179966
lfingers  90 7.125020027 -90
lthumb  94.82076045 -25.50724672 101.0810285
rclavicle  0 -4.497500157e-015 -2.743230041e-014
rhumerus  -19.89900017 18.36510086 -79.84049988
rradius  -5.16745672e-007 2.214343908e-008 93.167099
rwrist  -3.062178075e-005 0.01940524951 -177.7100067
rhand  -1.768881129e-031 3.510220051 -7.016839981
rfingers  -90 -7.125020027 -90
rthumb  -85.01756694 -8.923608911 -60.66297225
rfemur  -12.36170769 15.44832516 13.42503262
rtibia  -1.047520518 -0.01449308731 20.99315643
rfoot  -0.289824903 -20.33602715 -38.27382278
rtoes  4.136178688 19.58478492 -102.1742777
lfemur  -9.16835022 -17.67651749 -19.22982407
ltibia  1.930035114 0.05245225132 15.4002924
lfoot  0.574866116 -25.82693481 35.87390518
ltoes  -8.575402162 -18.13667037 -115.8470924
87
root  34.91823992 36.51855649 -14.85702785 8.938835144 -1.802044868 3.210726738
lowerback  -8.481121063 0.3588928878 -0.1312750429
upperback  -3.666919947 0.9501330256 -3.429620028
thorax  1.014719963 0.6265249848 -3.381380081
lowerneck  -14.64470005 0.1222480014 0.6240980029
upperneck  15.68190002 -1.470000029 6.190839767
head  7.281740189 -0.2379709631 1.746530175
lclavicle  0 -4.497500157e-015 -2.743230041e-014
lhumerus  -45.11740112 26.28339958 68.70539856
lradius  -0.009002206847 -6.507048965e-006 29.80439949
lwrist  4.824992743e-007 -3.790274832e-007 -27.26000023
lhand  -0 -36.94120026 -10.68400002
lfingers  90 7.125020027 -90
lthumb  94.83727609 -25.51818166 101.1138888
rclavicle  0 -4.497500157e-015 -2.743230041e-014
rhumerus  -18.30739975 18.87280083 -79.21790314
rradius  -5.16745672e-007 2.214343908e-008 93.40679932
rwrist  -3.062178075e-005 0.01934543066 -177.8910065
rhand  -1.768659868e-031 3.391360044 -6.624070168
rfingers  -90 -7.125020027 -90
rthumb  -84.85067893 -9.259194994 -60.74823972
rfemur  -12.35967636 15.46658039 13.42211056
rtibia  -1.03817606 -0.01716532186 20.96680069
rfoot  -0.2754058242 -20.3332119 -38.2636795
rtoes  4.128229506 19.58639901 -102.150564
lfemur  -9.176308632 -17.64496613 -19.22246933
ltibia  1.928917289 0.06608212739 15.40833282
lfoot  0.5860541463 -25.85975838 35.87843323
ltoes  -8.582268134 -18.13350793 -115.8691512
88
root  34.92021335 36.51920529 -14.8518735 8.961319923 -1.797466159 3.229405642
lowerback  -8.551799774 0.373072058 0.02970975824
upperback  -3.637229919 0.9622650146 -3.516870022
thorax  1.088379979 0.6323249936 -3.561480045
lowerneck  -14.64379978 0.149992004 0.7445690036
upperneck  15.63150024 -1.470720172 6.244830132
head  7.265709877 -0.2291229665 1.743580103
lclavicle  0 -4.497500157e-015 -2.743230041e-014
lhumerus  -45.0143013 26.20940018 68.63140106
lradius  -0.009002206847 -6.507048965e-006 29.77490234
lwrist  4.824992743e-007 -3.790274832e-007 -27.23800087
lhand  -4.418033285e-031 -36.94120026 -10.73639965
lfingers  90 7.125020027 -90
lthumb  94.84847347 -25.5695991 101.1187171
rclavicle  0 -4.497500157e-015 -2.743230041e-014
rhumerus  -16.58769989 19.29089928 -78.71640015
rradius  -5.16745672e-007 2.214343908e-008 93.5617981
rwrist  -3.062178075e-005 0.0192856174 -178.371994
rhand  -1.769182574e-031 3.665920019 -6.891389847
rfingers  -90 -7.125020027 -90
rthumb  -84.91906225 -9.042098014 -60.50128079
rfemur  -12.36872768 15.45580959 13.39318752
rtibia  -1.036255479 -0.01769474335 20.96172333
rfoot  -0.2657368183 -20.31760597 -38.24182892
rtoes  4.161546952 19.57961205 -102.2499679
lfemur  -9.141115189 -17.58813095 -19.27072716
ltibia  1.983169556 0.09815201163 15.32580376
lfoot  0.5926957726 -25.89269447 35.85370636
ltoes  -8.535409597 -18.15502803 -115.7186794
89
root  34.92113249 36.51954771 -14.84715019 8.973466873 -1.772889614 3.23020792
lowerback  -8.526129723 0.3715119064 -0.0196268484
upperback  -3.661489964 0.9628890157 -3.484620094
thorax  1.048079967 0.6330040097 -3.50026989
lowerneck  -14.60149956 0.2153120041 0.9198600054
upperneck  15.61359978 -1.390990019 6.108129978
head  7.248300076 -0.1931870431 1.678089976
lclavicle  0 -4.497500157e-015 -2.743230041e-014
lhumerus  -45.00799942 26.13220024 68.69979858
lradius  -0.009002206847 -6.507048965e-006 29.76549721
lwrist  4.824992743e-007 -3.790274832e-007 -27.19989967
lhand  -0 -36.98939896 -10.68760014
lfingers  90 7.125020027 -90
lthumb  94.86070534 -25.52003089 101.1658851
rclavicle  0 -4.497500157e-015 -2.743230041e-014
rhumerus  -14.8998003 19.95280075 -78.03910065
rradius  -5.16745672e-007 2.214343908e-008 93.78780365
rwrist  -3.062178075e-005 0.01922580972 -177.7319946
rhand  -1.769777576e-031 3.95517993 -6.913129807
rfingers  -90 -7.125020027 -90
rthumb  -84.8620664 -9.040447278 -60.22064032
rfemur  -12.36426163 15.43757248 13.3865633
rtibia  -1.028455853 -0.01663601585 20.94430733
rfoot  -0.2685191035 -20.31447029 -38.26486588
rtoes  4.173820282 19.57709745 -102.2865943
lfemur  -9.105068207 -17.61648369 -19.29637718
ltibia  2.023006201 0.1092763916 15.27610016
lfoot  0.6098814011 -25.89331245 35.88324356
ltoes  -8.551943497 -18.14745149 -115.7717533
